<svg xmlns="http://www.w3.org/2000/svg" viewBox="0 0 100 32" role="img" aria-label="DNB">
  <title>DNB</title>
  <path fill="#007272" d="M0 0h32v32H0V0zm4.5 8.5h7.5c4.1 0 6.8 2.4 6.8 7.5S16.1 23.5 12 23.5H4.5V8.5zm7 10.5c2 0 3.2-1.2 3.2-3.5s-1.2-3.5-3.2-3.5H8.5v7h3z"/>
  <path fill="#007272" d="M42 8.5h4.5v15h-4.5V8.5zm2.2-4.5c1.4 0 2.5 1 2.5 2.3s-1.1 2.3-2.5 2.3-2.5-1-2.5-2.3 1.1-2.3 2.5-2.3zM54 8.5h4.5l5.5 10.2V8.5H68v15h-4.5L58 13.3v10.2H54V8.5zM74 8.5h4.5v15H74V8.5zm2.2-4.5c1.4 0 2.5 1 2.5 2.3s-1.1 2.3-2.5 2.3-2.5-1-2.5-2.3 1.1-2.3 2.5-2.3zM86 8.5h4.5v15H86V8.5zm2.2-4.5c1.4 0 2.5 1 2.5 2.3s-1.1 2.3-2.5 2.3-2.5-1-2.5-2.3 1.1-2.3 2.5-2.3z"/>
</svg>
