<svg xmlns="http://www.w3.org/2000/svg" viewBox="0 0 120 28" role="img" aria-label="Klarna">
  <title>Klarna</title>
  <path fill="#0A0B09" d="M32.69 27.03h-6.47V.97h6.47v26.06zM44.27 27.03h-6.01V8.83h6.01v18.2zm-3.01-21.36c-2.01 0-3.43-1.35-3.43-3.24 0-1.89 1.42-3.24 3.43-3.24s3.43 1.35 3.43 3.24c0 1.89-1.42 3.24-3.43 3.24zM58.16 27.03h-5.78l-6.52-9.36V27.03h-6.01V8.83h5.78l6.52 9.36V8.83h6.01v18.2zM72.47 27.03h-6.01V8.83h6.01v18.2zm-3.01-21.36c-2.01 0-3.43-1.35-3.43-3.24 0-1.89 1.42-3.24 3.43-3.24s3.43 1.35 3.43 3.24c0 1.89-1.42 3.24-3.43 3.24zM88.89 27.03h-5.96c-4.89 0-7.89-2.89-7.89-7.56V8.83h6.01v9.89c0 2.56 1.35 3.89 3.78 3.89h.06V8.83h6.01v18.2h-2.01zM102.56 27.03h-6.01V8.83h6.01v18.2zm-3.01-21.36c-2.01 0-3.43-1.35-3.43-3.24 0-1.89 1.42-3.24 3.43-3.24s3.43 1.35 3.43 3.24c0 1.89-1.42 3.24-3.43 3.24zM119.47 27.03h-6.47V16.47l-5.56 10.56h-3.78L98.1 16.47v10.56h-6.01V8.83h6.47l5.56 10.56 5.56-10.56h6.47v18.2zM0 27.03V.97h6.47v26.06H0zM12.47 27.03V.97h6.47l7.56 14.67V.97h6.47v26.06h-6.47L18.94 12.36v14.67h-6.47z"/>
</svg>
