<svg xmlns="http://www.w3.org/2000/svg" viewBox="0 0 60 25" role="img" aria-label="Stripe">
  <title>Stripe</title>
  <path fill="#635BFF" fill-rule="evenodd" clip-rule="evenodd" d="M59.635 14.095c0 .702-.053 1.402-.053 2.105 0 4.753-2.723 7.692-7.455 7.692-2.369 0-4.461-.826-5.906-2.204l1.446-3.489c1.023.959 2.352 1.518 3.836 1.518 1.941 0 3.144-1.006 3.144-2.844V14.095h7.988zm-8.006-3.837h8.006V8.083h-8.006v2.175zM40.524 0c-2.369 0-4.461.826-5.906 2.204l1.445 3.489C37.086 4.734 38.415 4.175 39.899 4.175c1.941 0 3.144 1.006 3.144 2.844v.001h-7.988V0h5.469zm-13.097 9.053h-1.987V8.083h-1.987v11.81h1.987v-4.838c0-2.205 1.271-3.562 3.225-3.562 1.093 0 1.876.337 2.368.957l1.598-3.397zm-9.053 8.083V8.083H13.44v.97h.053c.704-1.007 1.916-1.597 3.355-1.597 3.037 0 4.838 2.045 4.838 5.448v4.232h-1.987V13.347c0-1.678-.915-2.684-2.472-2.684-1.558 0-2.631 1.114-2.631 2.843v4.63H0V10.153c0-.702.053-1.402.053-2.105C.053 3.395 2.776.456 7.508.456c2.369 0 4.461.826 5.906 2.204L11.968 6.15C10.945 5.19 9.616 4.631 8.132 4.631c-1.941 0-3.144 1.006-3.144 2.844v.678H0z"/>
</svg>
