<svg xmlns="http://www.w3.org/2000/svg" viewBox="0 0 180 40" role="img" aria-label="Vipps MobilePay">
  <title>Vipps MobilePay</title>
  <path fill="#FF5B24" d="M20 0C8.954 0 0 8.954 0 20s8.954 20 20 20 20-8.954 20-20S31.046 0 20 0zm8.2 28.5h-4.9l-7.8-11.2v11.2h-4.9V11.5h4.9l7.8 11.2V11.5h4.9v17z"/>
  <path fill="#0A0B09" d="M52 28.5V11.5h5.2v17H52zm2.6-19.4c-1.7 0-3-1.2-3-2.8s1.3-2.8 3-2.8 3 1.2 3 2.8-1.3 2.8-3 2.8zM68.5 28.9c-5.1 0-8.4-3.4-8.4-8.9s3.3-8.9 8.4-8.9 8.4 3.4 8.4 8.9-3.3 8.9-8.4 8.9zm0-13.8c-2.4 0-3.8 1.7-3.8 4.9s1.4 4.9 3.8 4.9 3.8-1.7 3.8-4.9-1.4-4.9-3.8-4.9zM88.2 28.5l-5.8-8.5v8.5h-4.9V11.5h4.9l5.8 8.5v-8.5h4.9v17h-4.9zM102.8 28.5V11.5h4.9v17h-4.9zm2.5-19.4c-1.7 0-3-1.2-3-2.8s1.3-2.8 3-2.8 3 1.2 3 2.8-1.3 2.8-3 2.8zM119.5 28.9c-5.1 0-8.4-3.4-8.4-8.9s3.3-8.9 8.4-8.9 8.4 3.4 8.4 8.9-3.3 8.9-8.4 8.9zm0-13.8c-2.4 0-3.8 1.7-3.8 4.9s1.4 4.9 3.8 4.9 3.8-1.7 3.8-4.9-1.4-4.9-3.8-4.9zM139.2 28.5h-4.9c-4.1 0-6.6-2.4-6.6-6.3V11.5h4.9v9.2c0 2.1 1.1 3.2 3.2 3.2h.4V11.5h4.9v17h-1.9zM155.8 28.5h-4.7l-5.5-7.9v7.9h-4.9V11.5h4.7l5.5 7.9v-7.9h4.9v17zM170.5 28.5V11.5h4.9v17h-4.9z"/>
</svg>
